<svg width="14" height="16" viewBox="0 0 14 16" fill="none" xmlns="http://www.w3.org/2000/svg">
<path d="M0.231761 9.35905C0.31571 9.25779 0.41881 9.17409 0.535157 9.11273C0.651504 9.05138 0.778812 9.01359 0.909789 9.00151C1.04077 8.98943 1.17284 9.00332 1.29844 9.04236C1.42405 9.0814 1.54071 9.14484 1.64176 9.22905L6.00176 12.859V0.999046C6.00176 0.73383 6.10712 0.479475 6.29465 0.291939C6.48219 0.104402 6.73654 -0.000953674 7.00176 -0.000953674C7.26698 -0.000953674 7.52133 0.104402 7.70887 0.291939C7.8964 0.479475 8.00176 0.73383 8.00176 0.999046V12.859L12.3618 9.22905C12.4629 9.145 12.5796 9.08169 12.7051 9.04274C12.8307 9.00379 12.9628 8.98995 13.0937 9.00203C13.2246 9.0141 13.3519 9.05184 13.4682 9.1131C13.5846 9.17435 13.6877 9.25793 13.7718 9.35905C13.8558 9.46016 13.9191 9.57685 13.9581 9.70243C13.997 9.82801 14.0109 9.96004 13.9988 10.091C13.9867 10.2219 13.949 10.3492 13.8877 10.4655C13.8265 10.5819 13.7429 10.685 13.6418 10.769L7.64176 15.769L7.49176 15.859L7.36176 15.929C7.13008 16.0184 6.87344 16.0184 6.64176 15.929L6.51176 15.859L6.36176 15.769L0.361761 10.769C0.260502 10.6851 0.1768 10.582 0.115448 10.4656C0.0540956 10.3493 0.0162993 10.222 0.00422342 10.091C-0.00785244 9.96004 0.00602958 9.82797 0.0450741 9.70236C0.0841185 9.57676 0.147559 9.46009 0.231761 9.35905Z" fill="#FF0000"/>
</svg>
