<svg width="14" height="16" viewBox="0 0 14 16" fill="none" xmlns="http://www.w3.org/2000/svg">
<path d="M0.231761 6.63705C0.31571 6.73831 0.41881 6.82201 0.535157 6.88336C0.651504 6.94471 0.778812 6.98251 0.909789 6.99458C1.04077 7.00666 1.17284 6.99278 1.29844 6.95373C1.42405 6.91469 1.54071 6.85125 1.64176 6.76705L6.00176 3.13705V14.997C6.00176 15.2623 6.10712 15.5166 6.29465 15.7042C6.48219 15.8917 6.73654 15.997 7.00176 15.997C7.26698 15.997 7.52133 15.8917 7.70887 15.7042C7.8964 15.5166 8.00176 15.2623 8.00176 14.997V3.13705L12.3618 6.76705C12.4629 6.85109 12.5796 6.9144 12.7051 6.95335C12.8307 6.9923 12.9628 7.00614 13.0937 6.99407C13.2246 6.982 13.3519 6.94425 13.4682 6.883C13.5846 6.82174 13.6877 6.73817 13.7718 6.63705C13.8558 6.53593 13.9191 6.41925 13.9581 6.29366C13.997 6.16808 14.0109 6.03605 13.9988 5.90512C13.9867 5.77419 13.949 5.64692 13.8877 5.53058C13.8265 5.41423 13.7429 5.31109 13.6418 5.22705L7.64176 0.227048L7.49176 0.137047L7.36176 0.0670477C7.13008 -0.0223492 6.87344 -0.0223492 6.64176 0.0670477L6.51176 0.137047L6.36176 0.227048L0.361761 5.22705C0.260502 5.311 0.1768 5.4141 0.115448 5.53044C0.0540956 5.64679 0.0162993 5.7741 0.00422342 5.90508C-0.00785244 6.03605 0.00602958 6.16813 0.0450741 6.29373C0.0841185 6.41933 0.147559 6.536 0.231761 6.63705Z" fill="#38C172"/>
</svg>
